<svg width="40" height="39" viewBox="0 0 40 39" fill="none" xmlns="http://www.w3.org/2000/svg">
<g clip-path="url(#clip0_302_2)">
<path d="M0 0H40V39H0V0Z" fill="#017ACB"/>
<path d="M19.2062 14.4422H21.125V17.6719H15.9375V32.0409L15.8 32.0775C15.6125 32.1262 13.1438 32.1262 12.6125 32.0714L12.1875 32.0348V17.6719H7V14.4422L8.64375 14.4239C9.54375 14.4117 11.8563 14.4117 13.7812 14.4239C15.7062 14.4361 18.1437 14.4422 19.2062 14.4422ZM33.85 30.5175C33.0875 31.3036 32.2687 31.7423 30.9062 32.1019C30.3125 32.2603 30.2125 32.2664 28.875 32.2603C27.5375 32.2542 27.4312 32.2542 26.7812 32.0897C25.1 31.6692 23.7438 30.8466 22.8188 29.6827C22.5563 29.3536 22.125 28.6711 22.125 28.5858C22.125 28.5614 22.1875 28.5066 22.2687 28.47C22.35 28.4334 22.5187 28.3298 22.6562 28.2506C22.7938 28.1714 23.0437 28.0252 23.2125 27.9398C23.3812 27.8545 23.8688 27.5742 24.2938 27.3244C24.7188 27.0745 25.1062 26.8734 25.15 26.8734C25.1937 26.8734 25.275 26.9587 25.3375 27.0623C25.7125 27.6778 26.5875 28.4639 27.2062 28.732C27.5875 28.8905 28.4312 29.0672 28.8375 29.0672C29.2125 29.0672 29.9 28.9087 30.2687 28.7442C30.6625 28.5675 30.8625 28.3908 31.1 28.0373C31.2625 27.7875 31.2812 27.7205 31.275 27.2452C31.275 26.8064 31.25 26.6845 31.125 26.4834C30.775 25.9228 30.3 25.6303 28.375 24.8016C26.3875 23.9423 25.4937 23.4305 24.7687 22.7419C24.2312 22.23 24.125 22.0898 23.7875 21.45C23.35 20.6273 23.2938 20.3592 23.2875 19.1344C23.2813 18.2752 23.3 17.9948 23.3937 17.7023C23.525 17.2636 23.95 16.4166 24.1437 16.2033C24.5437 15.7462 24.6875 15.6061 24.9688 15.3806C25.8188 14.6981 27.1438 14.2472 28.4125 14.2045C28.5563 14.2045 29.0313 14.2289 29.475 14.2594C30.75 14.363 31.6187 14.6677 32.4562 15.3197C33.0875 15.8072 34.0438 16.9528 33.95 17.1052C33.8875 17.1966 31.3938 18.8175 31.2313 18.8662C31.1313 18.8967 31.0625 18.8602 30.925 18.7017C30.075 17.7084 29.7312 17.4952 28.9062 17.4464C28.3188 17.4098 28.0062 17.4769 27.6125 17.7328C27.2 18.0009 27 18.4092 27 18.9759C27.0063 19.8047 27.3312 20.1947 28.5312 20.7736C29.3062 21.1453 29.9687 21.45 30.0187 21.45C30.0937 21.45 31.7 22.23 32.1188 22.4737C34.0688 23.5889 34.8625 24.7345 35.0687 26.7089C35.2187 28.1958 34.7875 29.5547 33.85 30.5175Z" fill="white"/>
</g>
<defs>
<clipPath id="clip0_302_2">
<rect width="40" height="39" fill="white"/>
</clipPath>
</defs>
</svg>
